<svg width="342" height="278" viewBox="0 0 342 278" fill="none" xmlns="http://www.w3.org/2000/svg">
<g filter="url(#filter0_f_601_1769)">
<mask id="mask0_601_1769" style="mask-type:alpha" maskUnits="userSpaceOnUse" x="38" y="0" width="350" height="241">
<rect x="38.49" y="0.895966" width="349.36" height="239.55" fill="url(#paint0_radial_601_1769)"/>
</mask>
<g mask="url(#mask0_601_1769)">
<mask id="mask1_601_1769" style="mask-type:alpha" maskUnits="userSpaceOnUse" x="64" y="1" width="103" height="213">
<rect x="64.0293" y="0.999969" width="102" height="212.53" fill="url(#paint1_linear_601_1769)"/>
</mask>
<g mask="url(#mask1_601_1769)">
</g>
<g clip-path="url(#clip0_601_1769)">
<g filter="url(#filter1_d_601_1769)">
<rect x="64.0293" y="-14.34" width="102" height="102" rx="15.62" fill="url(#paint2_linear_601_1769)"/>
<g opacity="0.6">
<path d="M115.024 22.8937V33.0654L123.628 36.9139L115.024 22.8937ZM115.024 22.8937L106.42 36.9139L115.024 33.067V22.8937ZM115.024 43.5079V50.4247L123.628 38.5184L115.024 43.5079ZM115.024 50.4247V43.5079L106.42 38.5184L115.024 50.4247Z" fill="#002DCB"/>
<path d="M115.024 41.9064L123.628 36.9154L115.024 33.0654V41.9064ZM106.42 36.9154L115.024 41.9049V33.067L106.42 36.9154Z" fill="#002DCB"/>
<path fill-rule="evenodd" clip-rule="evenodd" d="M115.024 41.9049L106.42 36.9139L115.024 22.8937L123.628 36.9139L115.024 41.9049ZM106.992 36.507L114.886 23.6432V32.9966L106.992 36.507ZM106.874 36.8588L114.886 33.2995V41.5041L106.874 36.8588ZM115.162 33.2995V41.5041L123.166 36.8573L115.162 33.2995ZM115.162 32.9966L123.054 36.507L115.162 23.6432V32.9966Z" fill="#002DCB"/>
<path fill-rule="evenodd" clip-rule="evenodd" d="M115.024 43.3993L106.42 38.5107L115.024 50.4262L123.628 38.5107L115.024 43.3993ZM107.384 39.3719L114.886 43.6394V49.7654L107.384 39.3719ZM115.162 43.6394V49.7654L122.664 39.3719L115.162 43.6394Z" fill="#002DCB"/>
</g>
</g>
<g filter="url(#filter2_d_601_1769)">
<rect x="64.0293" y="96.36" width="102" height="102" rx="15.62" fill="url(#paint3_linear_601_1769)"/>
<g opacity="0.6">
<path d="M107.2 137.808L115.024 133.594L122.848 137.808L119.978 139.368L115.024 136.706L110.077 139.368L107.2 137.808ZM122.848 143.131L119.978 141.571L115.024 144.232L110.077 141.571L107.202 143.131V146.243L112.142 148.905V154.22L115.024 155.78L117.9 154.22V148.905L122.846 146.243L122.848 143.131ZM122.848 151.566V148.446L119.978 150.006V153.119L122.848 151.566ZM124.894 152.668L119.948 155.321V158.442L127.77 154.22V145.792L124.894 147.345V152.668ZM122.019 140.469L124.887 142.029V145.142L127.77 143.59V140.469L124.894 138.909L122.019 140.477V140.469ZM112.139 156.453V159.566L115.024 161.126L117.9 159.566V156.461L115.024 158.014L112.148 156.453H112.139ZM107.2 151.559L110.068 153.119V150.006L107.2 148.446V151.566V151.559ZM112.141 140.469L115.024 142.029L117.9 140.469L115.024 138.909L112.148 140.477L112.141 140.469ZM105.154 142.029L108.029 140.469L105.161 138.909L102.278 140.477V143.597L105.154 145.15V142.029ZM105.154 147.345L102.278 145.792V154.22L110.1 158.442V155.314L105.16 152.66V147.337L105.154 147.345Z" fill="#002DCB"/>
</g>
</g>
<g filter="url(#filter3_d_601_1769)">
<rect x="64.0293" y="207.06" width="102" height="102" rx="15.62" fill="url(#paint4_linear_601_1769)"/>
</g>
</g>
<mask id="mask2_601_1769" style="mask-type:alpha" maskUnits="userSpaceOnUse" x="174" y="1" width="103" height="213">
<rect x="174.92" y="0.999969" width="102" height="212.53" fill="url(#paint5_linear_601_1769)"/>
</mask>
<g mask="url(#mask2_601_1769)">
</g>
<g clip-path="url(#clip1_601_1769)">
<g filter="url(#filter4_d_601_1769)">
<rect x="174.92" y="127.07" width="102" height="102" rx="15.62" fill="url(#paint6_linear_601_1769)"/>
<g opacity="0.6">
<path d="M225.914 164.304V174.475L234.518 178.324L225.914 164.304ZM225.914 164.304L217.311 178.324L225.914 174.477V164.304ZM225.914 184.918V191.835L234.518 179.928L225.914 184.918ZM225.914 191.835V184.918L217.311 179.928L225.914 191.835Z" fill="#002DCB"/>
<path d="M225.914 183.316L234.518 178.325L225.914 174.475V183.316ZM217.311 178.325L225.914 183.315V174.477L217.311 178.325Z" fill="#002DCB"/>
<path fill-rule="evenodd" clip-rule="evenodd" d="M225.914 183.315L217.311 178.324L225.914 164.304L234.518 178.324L225.914 183.315ZM217.883 177.917L225.777 165.053V174.407L217.883 177.917ZM217.765 178.269L225.777 174.709V182.914L217.765 178.269ZM226.052 174.709V182.914L234.056 178.267L226.052 174.709ZM226.052 174.407L233.945 177.917L226.052 165.053V174.407Z" fill="#002DCB"/>
<path fill-rule="evenodd" clip-rule="evenodd" d="M225.914 184.809L217.311 179.921L225.914 191.836L234.518 179.921L225.914 184.809ZM218.274 180.782L225.777 185.049V191.175L218.274 180.782ZM226.052 185.049V191.175L233.555 180.782L226.052 185.049Z" fill="#002DCB"/>
</g>
</g>
<g filter="url(#filter5_d_601_1769)">
<rect x="174.92" y="16.37" width="102" height="102" rx="15.62" fill="url(#paint7_linear_601_1769)"/>
<g opacity="0.6">
<path d="M218.902 62.6466C219.165 62.494 219.464 62.4137 219.768 62.4137C220.072 62.4137 220.371 62.494 220.635 62.6466L224.595 65.0113L227.284 66.5501L231.251 68.9133C231.753 69.2207 232.417 69.2207 232.975 68.9133L236.126 67.0671C236.636 66.7612 237.252 66.1937 237.252 65.5773V61.9338C237.252 61.3189 236.684 60.7514 236.119 60.444L233.024 58.6452C232.762 58.4943 232.465 58.415 232.162 58.415C231.86 58.415 231.563 58.4943 231.3 58.6452L228.198 60.444C227.697 60.7499 227.535 61.3189 227.535 61.9338V64.2894L225.104 62.7047V60.3308C225.104 59.7144 224.942 59.1484 225.508 58.841L231.253 55.4545C231.515 55.3036 231.812 55.2242 232.115 55.2242C232.417 55.2242 232.715 55.3036 232.977 55.4545L238.815 58.8395C239.083 58.9858 239.305 59.2028 239.458 59.4669C239.611 59.7309 239.689 60.0318 239.682 60.3369V67.1711C239.686 67.4746 239.607 67.7732 239.454 68.0355C239.301 68.2978 239.081 68.5139 238.815 68.6609L232.977 72.0459C232.715 72.1967 232.417 72.2761 232.115 72.2761C231.812 72.2761 231.515 72.1967 231.253 72.0459L227.285 69.7377L224.596 68.1439L220.628 65.8342C220.366 65.6831 220.069 65.6036 219.766 65.6036C219.463 65.6036 219.165 65.6831 218.903 65.8342L215.81 67.633C215.299 67.9405 214.579 68.508 214.579 69.1228V72.7663C214.579 73.3827 215.252 73.9487 215.81 74.2561L218.903 76.1023C219.414 76.4113 220.078 76.4113 220.636 76.1023L223.729 74.3051C224.24 73.9976 225.106 73.4302 225.106 72.8153V70.4597L227.536 72.0459V74.4106C227.536 75.0255 226.985 75.593 226.427 75.9004L220.572 79.2777C220.07 79.5928 219.405 79.5928 218.846 79.2777L213.008 75.8928C212.752 75.7375 212.54 75.5206 212.39 75.2619C212.24 75.0033 212.157 74.7111 212.148 74.4121V67.578C212.148 66.9631 212.456 66.3956 213.014 66.0882L218.902 62.6466Z" fill="#002DCB"/>
</g>
</g>
<g filter="url(#filter6_d_601_1769)">
<rect x="174.92" y="-94.33" width="102" height="102" rx="15.62" fill="url(#paint8_linear_601_1769)"/>
</g>
<g filter="url(#filter7_d_601_1769)">
<rect x="174.92" y="-205.03" width="102" height="102" rx="15.62" fill="url(#paint9_linear_601_1769)"/>
</g>
</g>
<mask id="mask3_601_1769" style="mask-type:alpha" maskUnits="userSpaceOnUse" x="285" y="1" width="103" height="213">
<rect x="285.81" y="0.999969" width="102" height="212.53" fill="url(#paint10_linear_601_1769)"/>
</mask>
<g mask="url(#mask3_601_1769)">
</g>
<g clip-path="url(#clip2_601_1769)">
<g filter="url(#filter8_d_601_1769)">
<rect x="285.81" y="-14.34" width="102" height="102" rx="15.62" fill="url(#paint11_linear_601_1769)"/>
<g opacity="0.6">
<path d="M329.945 48.7022H325.317C324.346 48.7022 323.865 48.7022 323.571 48.5202C323.416 48.422 323.286 48.2879 323.194 48.1293C323.101 47.9707 323.048 47.7922 323.039 47.6088C323.02 47.2647 323.262 46.8519 323.742 46.0185L335.165 26.1668C335.656 25.3243 335.905 24.9022 336.216 24.7478C336.38 24.6627 336.563 24.6184 336.749 24.6184C336.934 24.6184 337.117 24.6627 337.281 24.7478C337.59 24.9022 337.832 25.3243 338.314 26.1668L340.67 30.2099L340.679 30.2252C341.066 30.7987 341.374 31.421 341.591 32.0755C341.719 32.5924 341.719 33.1505 341.591 33.675C341.373 34.3355 341.066 34.9631 340.679 35.5406L334.676 46.0001L334.657 46.0353C334.348 46.6594 333.954 47.2381 333.488 47.7556C333.082 48.1312 332.597 48.4103 332.069 48.5722C331.579 48.7022 331.036 48.7022 329.945 48.7022ZM341.633 48.7022H348.256C349.246 48.7022 349.735 48.7022 350.029 48.5125C350.184 48.4142 350.313 48.2799 350.406 48.121C350.499 47.9621 350.552 47.7833 350.561 47.5996C350.579 47.2647 350.347 46.8702 349.882 46.0858L349.83 46.0001L346.512 40.4095L346.476 40.3407C346.011 39.5669 345.771 39.1709 345.47 39.0164C345.307 38.9314 345.125 38.8871 344.941 38.8871C344.757 38.8871 344.575 38.9314 344.412 39.0164C344.102 39.1709 343.861 39.5837 343.38 40.4095L340.06 46.0093V46.0261C339.571 46.8519 339.329 47.2647 339.346 47.6012C339.355 47.7857 339.409 47.9654 339.501 48.1252C339.594 48.2851 339.724 48.4205 339.88 48.5202C340.162 48.7022 340.653 48.7022 341.633 48.7022Z" fill="#002DCB"/>
</g>
</g>
<g filter="url(#filter9_d_601_1769)">
<rect x="285.81" y="96.36" width="102" height="102" rx="15.62" fill="url(#paint12_linear_601_1769)"/>
<g opacity="0.6">
<path d="M329.788 142.638C330.052 142.485 330.35 142.405 330.655 142.405C330.959 142.405 331.258 142.485 331.521 142.638L335.48 145.002L338.168 146.54L342.135 148.903C342.636 149.21 343.3 149.21 343.858 148.903L347.008 147.057C347.518 146.751 348.134 146.184 348.134 145.568V141.925C348.134 141.311 347.566 140.743 347.001 140.436L343.907 138.638C343.645 138.487 343.348 138.407 343.045 138.407C342.743 138.407 342.446 138.487 342.184 138.638L339.083 140.436C338.581 140.742 338.419 141.311 338.419 141.925V144.28L335.989 142.696V140.323C335.989 139.707 335.827 139.141 336.393 138.833L342.136 135.448C342.399 135.297 342.696 135.218 342.998 135.218C343.301 135.218 343.598 135.297 343.86 135.448L349.697 138.832C349.964 138.978 350.187 139.195 350.34 139.459C350.492 139.723 350.57 140.024 350.564 140.329V147.161C350.567 147.465 350.488 147.763 350.335 148.025C350.183 148.288 349.962 148.504 349.697 148.651L343.86 152.035C343.598 152.186 343.301 152.265 342.998 152.265C342.696 152.265 342.399 152.186 342.136 152.035L338.17 149.727L335.481 148.134L331.515 145.825C331.252 145.674 330.955 145.594 330.652 145.594C330.35 145.594 330.052 145.674 329.79 145.825L326.698 147.623C326.187 147.93 325.467 148.498 325.467 149.112V152.755C325.467 153.371 326.14 153.937 326.698 154.244L329.79 156.09C330.301 156.399 330.964 156.399 331.522 156.09L334.614 154.293C335.125 153.986 335.991 153.419 335.991 152.804V150.449L338.421 152.035V154.399C338.421 155.014 337.87 155.581 337.312 155.888L331.458 159.265C330.957 159.58 330.291 159.58 329.733 159.265L323.897 155.881C323.641 155.725 323.428 155.508 323.278 155.25C323.128 154.991 323.045 154.699 323.037 154.4V147.568C323.037 146.953 323.344 146.386 323.903 146.079L329.788 142.638Z" fill="#002DCB"/>
</g>
</g>
<g filter="url(#filter10_d_601_1769)">
<rect x="285.81" y="207.06" width="102" height="102" rx="15.62" fill="url(#paint13_linear_601_1769)"/>
</g>
</g>
</g>
</g>
<defs>
<filter id="filter0_f_601_1769" x="0.589989" y="-37.004" width="425.16" height="315.35" filterUnits="userSpaceOnUse" color-interpolation-filters="sRGB">
<feFlood flood-opacity="0" result="BackgroundImageFix"/>
<feBlend mode="normal" in="SourceGraphic" in2="BackgroundImageFix" result="shape"/>
<feGaussianBlur stdDeviation="18.95" result="effect1_foregroundBlur_601_1769"/>
</filter>
<filter id="filter1_d_601_1769" x="-37.9707" y="-112.34" width="306" height="306" filterUnits="userSpaceOnUse" color-interpolation-filters="sRGB">
<feFlood flood-opacity="0" result="BackgroundImageFix"/>
<feColorMatrix in="SourceAlpha" type="matrix" values="0 0 0 0 0 0 0 0 0 0 0 0 0 0 0 0 0 0 127 0" result="hardAlpha"/>
<feMorphology radius="48" operator="erode" in="SourceAlpha" result="effect1_dropShadow_601_1769"/>
<feOffset dy="4"/>
<feGaussianBlur stdDeviation="75"/>
<feComposite in2="hardAlpha" operator="out"/>
<feColorMatrix type="matrix" values="0 0 0 0 0.0941176 0 0 0 0 0.121569 0 0 0 0 0.176471 0 0 0 0.125 0"/>
<feBlend mode="normal" in2="BackgroundImageFix" result="effect1_dropShadow_601_1769"/>
<feBlend mode="normal" in="SourceGraphic" in2="effect1_dropShadow_601_1769" result="shape"/>
</filter>
<filter id="filter2_d_601_1769" x="-37.9707" y="-1.64001" width="306" height="306" filterUnits="userSpaceOnUse" color-interpolation-filters="sRGB">
<feFlood flood-opacity="0" result="BackgroundImageFix"/>
<feColorMatrix in="SourceAlpha" type="matrix" values="0 0 0 0 0 0 0 0 0 0 0 0 0 0 0 0 0 0 127 0" result="hardAlpha"/>
<feMorphology radius="48" operator="erode" in="SourceAlpha" result="effect1_dropShadow_601_1769"/>
<feOffset dy="4"/>
<feGaussianBlur stdDeviation="75"/>
<feComposite in2="hardAlpha" operator="out"/>
<feColorMatrix type="matrix" values="0 0 0 0 0.0941176 0 0 0 0 0.121569 0 0 0 0 0.176471 0 0 0 0.125 0"/>
<feBlend mode="normal" in2="BackgroundImageFix" result="effect1_dropShadow_601_1769"/>
<feBlend mode="normal" in="SourceGraphic" in2="effect1_dropShadow_601_1769" result="shape"/>
</filter>
<filter id="filter3_d_601_1769" x="-37.9707" y="109.06" width="306" height="306" filterUnits="userSpaceOnUse" color-interpolation-filters="sRGB">
<feFlood flood-opacity="0" result="BackgroundImageFix"/>
<feColorMatrix in="SourceAlpha" type="matrix" values="0 0 0 0 0 0 0 0 0 0 0 0 0 0 0 0 0 0 127 0" result="hardAlpha"/>
<feMorphology radius="48" operator="erode" in="SourceAlpha" result="effect1_dropShadow_601_1769"/>
<feOffset dy="4"/>
<feGaussianBlur stdDeviation="75"/>
<feComposite in2="hardAlpha" operator="out"/>
<feColorMatrix type="matrix" values="0 0 0 0 0.0941176 0 0 0 0 0.121569 0 0 0 0 0.176471 0 0 0 0.125 0"/>
<feBlend mode="normal" in2="BackgroundImageFix" result="effect1_dropShadow_601_1769"/>
<feBlend mode="normal" in="SourceGraphic" in2="effect1_dropShadow_601_1769" result="shape"/>
</filter>
<filter id="filter4_d_601_1769" x="72.9197" y="29.0699" width="306" height="306" filterUnits="userSpaceOnUse" color-interpolation-filters="sRGB">
<feFlood flood-opacity="0" result="BackgroundImageFix"/>
<feColorMatrix in="SourceAlpha" type="matrix" values="0 0 0 0 0 0 0 0 0 0 0 0 0 0 0 0 0 0 127 0" result="hardAlpha"/>
<feMorphology radius="48" operator="erode" in="SourceAlpha" result="effect1_dropShadow_601_1769"/>
<feOffset dy="4"/>
<feGaussianBlur stdDeviation="75"/>
<feComposite in2="hardAlpha" operator="out"/>
<feColorMatrix type="matrix" values="0 0 0 0 0.0941176 0 0 0 0 0.121569 0 0 0 0 0.176471 0 0 0 0.125 0"/>
<feBlend mode="normal" in2="BackgroundImageFix" result="effect1_dropShadow_601_1769"/>
<feBlend mode="normal" in="SourceGraphic" in2="effect1_dropShadow_601_1769" result="shape"/>
</filter>
<filter id="filter5_d_601_1769" x="72.9197" y="-81.63" width="306" height="306" filterUnits="userSpaceOnUse" color-interpolation-filters="sRGB">
<feFlood flood-opacity="0" result="BackgroundImageFix"/>
<feColorMatrix in="SourceAlpha" type="matrix" values="0 0 0 0 0 0 0 0 0 0 0 0 0 0 0 0 0 0 127 0" result="hardAlpha"/>
<feMorphology radius="48" operator="erode" in="SourceAlpha" result="effect1_dropShadow_601_1769"/>
<feOffset dy="4"/>
<feGaussianBlur stdDeviation="75"/>
<feComposite in2="hardAlpha" operator="out"/>
<feColorMatrix type="matrix" values="0 0 0 0 0.0941176 0 0 0 0 0.121569 0 0 0 0 0.176471 0 0 0 0.125 0"/>
<feBlend mode="normal" in2="BackgroundImageFix" result="effect1_dropShadow_601_1769"/>
<feBlend mode="normal" in="SourceGraphic" in2="effect1_dropShadow_601_1769" result="shape"/>
</filter>
<filter id="filter6_d_601_1769" x="72.9197" y="-192.33" width="306" height="306" filterUnits="userSpaceOnUse" color-interpolation-filters="sRGB">
<feFlood flood-opacity="0" result="BackgroundImageFix"/>
<feColorMatrix in="SourceAlpha" type="matrix" values="0 0 0 0 0 0 0 0 0 0 0 0 0 0 0 0 0 0 127 0" result="hardAlpha"/>
<feMorphology radius="48" operator="erode" in="SourceAlpha" result="effect1_dropShadow_601_1769"/>
<feOffset dy="4"/>
<feGaussianBlur stdDeviation="75"/>
<feComposite in2="hardAlpha" operator="out"/>
<feColorMatrix type="matrix" values="0 0 0 0 0.0941176 0 0 0 0 0.121569 0 0 0 0 0.176471 0 0 0 0.125 0"/>
<feBlend mode="normal" in2="BackgroundImageFix" result="effect1_dropShadow_601_1769"/>
<feBlend mode="normal" in="SourceGraphic" in2="effect1_dropShadow_601_1769" result="shape"/>
</filter>
<filter id="filter7_d_601_1769" x="72.9197" y="-303.03" width="306" height="306" filterUnits="userSpaceOnUse" color-interpolation-filters="sRGB">
<feFlood flood-opacity="0" result="BackgroundImageFix"/>
<feColorMatrix in="SourceAlpha" type="matrix" values="0 0 0 0 0 0 0 0 0 0 0 0 0 0 0 0 0 0 127 0" result="hardAlpha"/>
<feMorphology radius="48" operator="erode" in="SourceAlpha" result="effect1_dropShadow_601_1769"/>
<feOffset dy="4"/>
<feGaussianBlur stdDeviation="75"/>
<feComposite in2="hardAlpha" operator="out"/>
<feColorMatrix type="matrix" values="0 0 0 0 0.0941176 0 0 0 0 0.121569 0 0 0 0 0.176471 0 0 0 0.125 0"/>
<feBlend mode="normal" in2="BackgroundImageFix" result="effect1_dropShadow_601_1769"/>
<feBlend mode="normal" in="SourceGraphic" in2="effect1_dropShadow_601_1769" result="shape"/>
</filter>
<filter id="filter8_d_601_1769" x="183.81" y="-112.34" width="306" height="306" filterUnits="userSpaceOnUse" color-interpolation-filters="sRGB">
<feFlood flood-opacity="0" result="BackgroundImageFix"/>
<feColorMatrix in="SourceAlpha" type="matrix" values="0 0 0 0 0 0 0 0 0 0 0 0 0 0 0 0 0 0 127 0" result="hardAlpha"/>
<feMorphology radius="48" operator="erode" in="SourceAlpha" result="effect1_dropShadow_601_1769"/>
<feOffset dy="4"/>
<feGaussianBlur stdDeviation="75"/>
<feComposite in2="hardAlpha" operator="out"/>
<feColorMatrix type="matrix" values="0 0 0 0 0.0941176 0 0 0 0 0.121569 0 0 0 0 0.176471 0 0 0 0.125 0"/>
<feBlend mode="normal" in2="BackgroundImageFix" result="effect1_dropShadow_601_1769"/>
<feBlend mode="normal" in="SourceGraphic" in2="effect1_dropShadow_601_1769" result="shape"/>
</filter>
<filter id="filter9_d_601_1769" x="183.81" y="-1.64001" width="306" height="306" filterUnits="userSpaceOnUse" color-interpolation-filters="sRGB">
<feFlood flood-opacity="0" result="BackgroundImageFix"/>
<feColorMatrix in="SourceAlpha" type="matrix" values="0 0 0 0 0 0 0 0 0 0 0 0 0 0 0 0 0 0 127 0" result="hardAlpha"/>
<feMorphology radius="48" operator="erode" in="SourceAlpha" result="effect1_dropShadow_601_1769"/>
<feOffset dy="4"/>
<feGaussianBlur stdDeviation="75"/>
<feComposite in2="hardAlpha" operator="out"/>
<feColorMatrix type="matrix" values="0 0 0 0 0.0941176 0 0 0 0 0.121569 0 0 0 0 0.176471 0 0 0 0.125 0"/>
<feBlend mode="normal" in2="BackgroundImageFix" result="effect1_dropShadow_601_1769"/>
<feBlend mode="normal" in="SourceGraphic" in2="effect1_dropShadow_601_1769" result="shape"/>
</filter>
<filter id="filter10_d_601_1769" x="183.81" y="109.06" width="306" height="306" filterUnits="userSpaceOnUse" color-interpolation-filters="sRGB">
<feFlood flood-opacity="0" result="BackgroundImageFix"/>
<feColorMatrix in="SourceAlpha" type="matrix" values="0 0 0 0 0 0 0 0 0 0 0 0 0 0 0 0 0 0 127 0" result="hardAlpha"/>
<feMorphology radius="48" operator="erode" in="SourceAlpha" result="effect1_dropShadow_601_1769"/>
<feOffset dy="4"/>
<feGaussianBlur stdDeviation="75"/>
<feComposite in2="hardAlpha" operator="out"/>
<feColorMatrix type="matrix" values="0 0 0 0 0.0941176 0 0 0 0 0.121569 0 0 0 0 0.176471 0 0 0 0.125 0"/>
<feBlend mode="normal" in2="BackgroundImageFix" result="effect1_dropShadow_601_1769"/>
<feBlend mode="normal" in="SourceGraphic" in2="effect1_dropShadow_601_1769" result="shape"/>
</filter>
<radialGradient id="paint0_radial_601_1769" cx="0" cy="0" r="1" gradientUnits="userSpaceOnUse" gradientTransform="translate(317.978 120.671) scale(304.072 304.072)">
<stop offset="0.3"/>
<stop offset="1" stop-opacity="0"/>
</radialGradient>
<linearGradient id="paint1_linear_601_1769" x1="115.029" y1="0.999969" x2="115.029" y2="213.53" gradientUnits="userSpaceOnUse">
<stop offset="0.5"/>
<stop offset="1" stop-opacity="0"/>
</linearGradient>
<linearGradient id="paint2_linear_601_1769" x1="115.029" y1="-14.34" x2="115.029" y2="87.66" gradientUnits="userSpaceOnUse">
<stop stop-color="#FAFBFF"/>
<stop offset="1" stop-color="white"/>
</linearGradient>
<linearGradient id="paint3_linear_601_1769" x1="115.029" y1="96.36" x2="115.029" y2="198.36" gradientUnits="userSpaceOnUse">
<stop stop-color="#FAFBFF"/>
<stop offset="1" stop-color="white"/>
</linearGradient>
<linearGradient id="paint4_linear_601_1769" x1="115.029" y1="207.06" x2="115.029" y2="309.06" gradientUnits="userSpaceOnUse">
<stop stop-color="#FAFBFF"/>
<stop offset="1" stop-color="white"/>
</linearGradient>
<linearGradient id="paint5_linear_601_1769" x1="225.92" y1="0.999969" x2="225.92" y2="213.53" gradientUnits="userSpaceOnUse">
<stop offset="0.5"/>
<stop offset="1" stop-opacity="0"/>
</linearGradient>
<linearGradient id="paint6_linear_601_1769" x1="225.92" y1="127.07" x2="225.92" y2="229.07" gradientUnits="userSpaceOnUse">
<stop stop-color="#FAFBFF"/>
<stop offset="1" stop-color="white"/>
</linearGradient>
<linearGradient id="paint7_linear_601_1769" x1="225.92" y1="16.37" x2="225.92" y2="118.37" gradientUnits="userSpaceOnUse">
<stop stop-color="#FAFBFF"/>
<stop offset="1" stop-color="white"/>
</linearGradient>
<linearGradient id="paint8_linear_601_1769" x1="225.92" y1="-94.33" x2="225.92" y2="7.66995" gradientUnits="userSpaceOnUse">
<stop stop-color="#FAFBFF"/>
<stop offset="1" stop-color="white"/>
</linearGradient>
<linearGradient id="paint9_linear_601_1769" x1="225.92" y1="-205.03" x2="225.92" y2="-103.03" gradientUnits="userSpaceOnUse">
<stop stop-color="#FAFBFF"/>
<stop offset="1" stop-color="white"/>
</linearGradient>
<linearGradient id="paint10_linear_601_1769" x1="336.81" y1="0.999969" x2="336.81" y2="213.53" gradientUnits="userSpaceOnUse">
<stop offset="0.5"/>
<stop offset="1" stop-opacity="0"/>
</linearGradient>
<linearGradient id="paint11_linear_601_1769" x1="336.81" y1="-14.34" x2="336.81" y2="87.66" gradientUnits="userSpaceOnUse">
<stop stop-color="#FAFBFF"/>
<stop offset="1" stop-color="white"/>
</linearGradient>
<linearGradient id="paint12_linear_601_1769" x1="336.81" y1="96.36" x2="336.81" y2="198.36" gradientUnits="userSpaceOnUse">
<stop stop-color="#FAFBFF"/>
<stop offset="1" stop-color="white"/>
</linearGradient>
<linearGradient id="paint13_linear_601_1769" x1="336.81" y1="207.06" x2="336.81" y2="309.06" gradientUnits="userSpaceOnUse">
<stop stop-color="#FAFBFF"/>
<stop offset="1" stop-color="white"/>
</linearGradient>
<clipPath id="clip0_601_1769">
<rect width="102" height="212.53" fill="white" transform="translate(64.0293 0.999969)"/>
</clipPath>
<clipPath id="clip1_601_1769">
<rect width="102" height="212.53" fill="white" transform="translate(174.92 0.999969)"/>
</clipPath>
<clipPath id="clip2_601_1769">
<rect width="102" height="212.53" fill="white" transform="translate(285.81 0.999969)"/>
</clipPath>
</defs>
</svg>
