<svg width="321" height="221" viewBox="0 0 321 221" fill="none" xmlns="http://www.w3.org/2000/svg">
<mask id="mask0_601_6460" style="mask-type:alpha" maskUnits="userSpaceOnUse" x="0" y="0" width="321" height="221">
<rect x="0.219727" y="0.895996" width="320.23" height="219.58" fill="url(#paint0_linear_601_6460)"/>
</mask>
<g mask="url(#mask0_601_6460)">
<path d="M63.7615 75.7256H43.5544C34.6187 75.7256 27.375 68.4819 27.375 59.5463V-13.261" stroke="#D4DEF0" stroke-width="1.11232" stroke-linecap="round" stroke-linejoin="round" stroke-dasharray="4.04 3.03"/>
<path d="M62.7213 83.8145H23.801C14.8653 83.8145 7.62158 91.0583 7.62158 99.9938L7.62159 172.801" stroke="#D4DEF0" stroke-width="1.11232" stroke-linecap="round" stroke-linejoin="round" stroke-dasharray="4.04 3.03"/>
<g filter="url(#filter0_d_601_6460)">
<g clip-path="url(#clip0_601_6460)">
<rect x="64.2695" y="33.816" width="304.22" height="209.14" rx="15.62" fill="url(#paint1_linear_601_6460)" shape-rendering="crispEdges"/>
<rect x="76.4194" y="42.176" width="6.27" height="6.27" rx="3.135" fill="#E5E5E5"/>
<rect x="85.4492" y="42.176" width="6.27" height="6.27" rx="3.135" fill="#E5E5E5"/>
<rect x="94.4795" y="42.176" width="6.27" height="6.27" rx="3.135" fill="#E5E5E5"/>
<g filter="url(#filter1_d_601_6460)">
<rect x="81.6094" y="55.506" width="58.2" height="50.92" rx="13.01" fill="url(#paint2_linear_601_6460)" shape-rendering="crispEdges"/>
<path d="M110.72 63.496C110.879 63.496 111.03 63.5588 111.142 63.6708C111.254 63.7827 111.317 63.9345 111.317 64.0928V73.7606C111.317 73.9189 111.254 74.0707 111.142 74.1826C111.03 74.2945 110.879 74.3574 110.72 74.3574C110.562 74.3574 110.41 74.2945 110.298 74.1826C110.186 74.0707 110.124 73.9189 110.124 73.7606V64.0928C110.124 63.9345 110.186 63.7827 110.298 63.6708C110.41 63.5588 110.562 63.496 110.72 63.496ZM110.72 87.4864C110.879 87.4864 111.03 87.5493 111.142 87.6612C111.254 87.7731 111.317 87.9249 111.317 88.0832V97.751C111.317 97.9093 111.254 98.0611 111.142 98.173C111.03 98.2849 110.879 98.3478 110.72 98.3478C110.562 98.3478 110.41 98.2849 110.298 98.173C110.186 98.0611 110.124 97.9093 110.124 97.751V88.0832C110.124 87.7536 110.391 87.4864 110.72 87.4864ZM128.146 80.9219C128.146 81.0003 128.131 81.0779 128.101 81.1503C128.071 81.2227 128.027 81.2885 127.971 81.3439C127.916 81.3993 127.85 81.4433 127.778 81.4733C127.705 81.5032 127.628 81.5187 127.549 81.5187H117.882C117.723 81.5187 117.572 81.4558 117.46 81.3439C117.348 81.232 117.285 81.0802 117.285 80.9219C117.285 80.7636 117.348 80.6118 117.46 80.4999C117.572 80.388 117.723 80.3251 117.882 80.3251H127.549C127.628 80.3251 127.705 80.3405 127.778 80.3705C127.85 80.4005 127.916 80.4445 127.971 80.4999C128.027 80.5553 128.071 80.6211 128.101 80.6935C128.131 80.7659 128.146 80.8435 128.146 80.9219ZM104.156 80.9219C104.156 81.2514 103.889 81.5187 103.559 81.5187H93.8912C93.733 81.5187 93.5812 81.4558 93.4692 81.3439C93.3573 81.232 93.2944 81.0802 93.2944 80.9219C93.2944 80.7636 93.3573 80.6118 93.4692 80.4999C93.5812 80.388 93.733 80.3251 93.8912 80.3251H103.559C103.717 80.3251 103.869 80.388 103.981 80.4999C104.093 80.6118 104.156 80.7636 104.156 80.9219ZM123.042 68.5999C123.275 68.833 123.275 69.2109 123.042 69.4439L116.206 76.28C116.094 76.3898 115.943 76.4509 115.786 76.4501C115.628 76.4492 115.478 76.3864 115.367 76.2753C115.256 76.1642 115.193 76.0137 115.192 75.8566C115.191 75.6995 115.252 75.5484 115.362 75.4361L122.198 68.5999C122.254 68.5445 122.32 68.5006 122.392 68.4706C122.464 68.4406 122.542 68.4251 122.62 68.4251C122.699 68.4251 122.776 68.4406 122.849 68.4706C122.921 68.5006 122.987 68.5445 123.042 68.5999ZM106.079 85.5637C106.312 85.7968 106.312 86.1746 106.079 86.4077L99.2423 93.2438C99.13 93.3537 98.9789 93.4148 98.8218 93.4139C98.6647 93.413 98.5142 93.3502 98.4031 93.2391C98.292 93.128 98.2292 92.9776 98.2283 92.8205C98.2275 92.6633 98.2886 92.5122 98.3984 92.3999L105.235 85.5637C105.468 85.3307 105.845 85.3307 106.079 85.5637ZM123.042 93.2438C122.93 93.3557 122.779 93.4186 122.62 93.4186C122.462 93.4186 122.31 93.3557 122.198 93.2438L115.362 86.4077C115.307 86.3523 115.263 86.2865 115.233 86.2141C115.203 86.1417 115.187 86.0641 115.187 85.9857C115.187 85.9073 115.203 85.8297 115.233 85.7573C115.263 85.6849 115.307 85.6191 115.362 85.5637C115.595 85.3307 115.973 85.3307 116.206 85.5637L123.042 92.3999C123.154 92.5118 123.217 92.6636 123.217 92.8218C123.217 92.9801 123.154 93.1319 123.042 93.2438ZM106.079 76.28C106.023 76.3354 105.957 76.3794 105.885 76.4094C105.813 76.4394 105.735 76.4548 105.657 76.4548C105.578 76.4548 105.501 76.4394 105.428 76.4094C105.356 76.3794 105.29 76.3354 105.235 76.28L98.3984 69.4439C98.2886 69.3315 98.2275 69.1804 98.2283 69.0233C98.2292 68.8662 98.292 68.7158 98.4031 68.6047C98.5142 68.4936 98.6647 68.4308 98.8218 68.4299C98.9789 68.429 99.13 68.4901 99.2423 68.5999L106.079 75.4361C106.312 75.6692 106.312 76.0471 106.079 76.2801V76.28ZM115.231 64.0898C115.383 64.1307 115.514 64.2308 115.593 64.3678C115.672 64.5049 115.693 64.6678 115.652 64.8207L113.15 74.159C113.131 74.2354 113.096 74.3071 113.049 74.37C113.001 74.433 112.941 74.4859 112.873 74.5256C112.805 74.5654 112.73 74.5913 112.652 74.6018C112.574 74.6123 112.494 74.6072 112.418 74.5868C112.342 74.5664 112.27 74.5311 112.208 74.4829C112.145 74.4347 112.093 74.3747 112.054 74.3061C112.015 74.2376 111.99 74.1621 111.98 74.0838C111.97 74.0055 111.976 73.9261 111.997 73.8501L114.5 64.5117C114.541 64.3589 114.641 64.2285 114.778 64.1494C114.915 64.0702 115.078 64.0488 115.231 64.0898ZM109.021 87.2627C109.174 87.3037 109.305 87.4037 109.384 87.5408C109.463 87.6779 109.484 87.8407 109.443 87.9936L106.941 97.332C106.921 97.4083 106.887 97.4799 106.839 97.5427C106.791 97.6055 106.732 97.6582 106.664 97.6979C106.596 97.7376 106.521 97.7634 106.442 97.7738C106.364 97.7842 106.285 97.7791 106.209 97.7587C106.133 97.7383 106.061 97.7031 105.999 97.655C105.937 97.6069 105.884 97.5469 105.845 97.4785C105.806 97.4102 105.781 97.3347 105.771 97.2565C105.761 97.1784 105.767 97.099 105.788 97.0231L108.29 87.6847C108.376 87.3664 108.703 87.1775 109.021 87.2627ZM127.552 85.4321C127.511 85.5849 127.411 85.7153 127.274 85.7944C127.137 85.8735 126.974 85.895 126.822 85.854L117.483 83.3518C117.407 83.3322 117.335 83.2976 117.272 83.25C117.209 83.2025 117.156 83.143 117.117 83.0748C117.077 83.0067 117.051 82.9314 117.04 82.8532C117.03 82.7751 117.035 82.6956 117.055 82.6194C117.076 82.5432 117.111 82.4718 117.159 82.4094C117.207 82.3469 117.268 82.2946 117.336 82.2555C117.405 82.2164 117.48 82.1913 117.558 82.1816C117.637 82.1719 117.716 82.1778 117.792 82.1989L127.13 84.7011C127.283 84.7421 127.414 84.8421 127.493 84.9792C127.572 85.1163 127.593 85.2792 127.552 85.4321ZM104.38 79.2228C104.339 79.3757 104.239 79.5061 104.101 79.5852C103.964 79.6643 103.801 79.6858 103.649 79.6448L94.3102 77.1426C94.2339 77.1228 94.1623 77.0882 94.0995 77.0406C94.0368 76.993 93.984 76.9335 93.9443 76.8654C93.9047 76.7973 93.8789 76.7221 93.8684 76.644C93.858 76.5659 93.8631 76.4865 93.8835 76.4104C93.9039 76.3343 93.9391 76.263 93.9872 76.2006C94.0353 76.1382 94.0953 76.086 94.1637 76.0468C94.2321 76.0077 94.3075 75.9826 94.3857 75.9727C94.4639 75.9629 94.5432 75.9687 94.6191 75.9897L103.958 78.4919C104.276 78.5773 104.465 78.9045 104.38 79.2228ZM125.812 72.2089C125.976 72.4943 125.879 72.8593 125.593 73.0242L117.221 77.858C117.084 77.9364 116.921 77.9572 116.769 77.9161C116.616 77.8749 116.487 77.775 116.408 77.6383C116.329 77.5016 116.307 77.3392 116.348 77.1867C116.388 77.0341 116.487 76.9038 116.624 76.8243L124.996 71.9905C125.134 71.9114 125.296 71.8899 125.449 71.9309C125.602 71.9718 125.733 72.0718 125.812 72.2089ZM105.035 84.2041C105.114 84.3412 105.136 84.5041 105.095 84.657C105.054 84.8099 104.954 84.9402 104.817 85.0193L96.4443 89.8533C96.3764 89.8929 96.3014 89.9186 96.2235 89.9291C96.1456 89.9396 96.0664 89.9347 95.9905 89.9145C95.9145 89.8943 95.8433 89.8593 95.7809 89.8116C95.7185 89.7638 95.6662 89.7041 95.6269 89.6361C95.5876 89.568 95.5621 89.4929 95.552 89.415C95.5418 89.337 95.5471 89.2579 95.5676 89.182C95.5881 89.1062 95.6234 89.0351 95.6714 88.9729C95.7194 88.9107 95.7793 88.8586 95.8475 88.8196L104.22 83.9857C104.357 83.9066 104.52 83.8852 104.673 83.9261C104.826 83.9671 104.956 84.0671 105.035 84.2041ZM119.433 96.0131C119.365 96.0523 119.291 96.0777 119.213 96.088C119.135 96.0982 119.056 96.093 118.98 96.0728C118.905 96.0525 118.834 96.0175 118.772 95.9698C118.709 95.9221 118.657 95.8626 118.618 95.7947L113.784 87.4222C113.619 87.1367 113.717 86.7717 114.003 86.6069C114.288 86.4421 114.653 86.5399 114.818 86.8254L119.652 95.1979C119.731 95.335 119.752 95.4979 119.711 95.6507C119.67 95.8036 119.57 95.934 119.433 96.0131ZM107.438 75.2368C107.301 75.3159 107.138 75.3373 106.985 75.2964C106.832 75.2554 106.702 75.1554 106.623 75.0184L101.789 66.6458C101.749 66.578 101.724 66.5029 101.713 66.425C101.703 66.3472 101.708 66.268 101.728 66.192C101.748 66.1161 101.783 66.0449 101.831 65.9825C101.878 65.9201 101.938 65.8677 102.006 65.8284C102.074 65.7891 102.149 65.7637 102.227 65.7535C102.305 65.7433 102.384 65.7486 102.46 65.7691C102.536 65.7896 102.607 65.8249 102.669 65.8729C102.732 65.921 102.784 65.9808 102.823 66.049L107.656 74.4216C107.736 74.5586 107.757 74.7215 107.716 74.8744C107.675 75.0273 107.575 75.1576 107.438 75.2368ZM119.433 65.8306C119.57 65.9097 119.67 66.0401 119.711 66.1929C119.752 66.3458 119.731 66.5087 119.652 66.6458L114.818 75.0184C114.779 75.0866 114.727 75.1464 114.665 75.1945C114.602 75.2425 114.531 75.2778 114.455 75.2983C114.38 75.3188 114.3 75.3241 114.222 75.3139C114.145 75.3037 114.069 75.2783 114.001 75.239C113.933 75.1997 113.874 75.1474 113.826 75.085C113.778 75.0226 113.743 74.9513 113.723 74.8754C113.703 74.7994 113.698 74.7203 113.708 74.6424C113.719 74.5645 113.745 74.4895 113.784 74.4216L118.618 66.049C118.783 65.7636 119.148 65.6658 119.433 65.8306ZM107.438 86.6069C107.575 86.6861 107.675 86.8164 107.716 86.9693C107.757 87.1222 107.736 87.2851 107.656 87.4221L102.823 95.7947C102.784 95.8629 102.732 95.9228 102.669 95.9708C102.607 96.0189 102.536 96.0541 102.46 96.0746C102.384 96.0951 102.305 96.1004 102.227 96.0903C102.149 96.0801 102.074 96.0546 102.006 96.0153C101.938 95.976 101.878 95.9237 101.831 95.8613C101.783 95.7989 101.748 95.7277 101.728 95.6517C101.708 95.5758 101.703 95.4966 101.713 95.4187C101.724 95.3408 101.749 95.2658 101.789 95.1979L106.623 86.8254C106.702 86.6883 106.832 86.5883 106.985 86.5473C107.138 86.5064 107.301 86.5278 107.438 86.6069ZM125.812 89.6348C125.733 89.7719 125.602 89.8719 125.449 89.9129C125.296 89.9538 125.134 89.9324 124.996 89.8533L116.624 85.0193C116.489 84.9392 116.391 84.8091 116.351 84.6571C116.311 84.5051 116.333 84.3435 116.411 84.2075C116.49 84.0714 116.619 83.9718 116.77 83.9303C116.922 83.8888 117.084 83.9087 117.221 83.9857L125.593 88.8196C125.73 88.8987 125.83 89.0291 125.871 89.1819C125.912 89.3348 125.891 89.4977 125.812 89.6348ZM105.035 77.6396C104.956 77.7767 104.826 77.8767 104.673 77.9176C104.52 77.9586 104.357 77.9372 104.22 77.858L95.8475 73.0242C95.7111 72.9447 95.6118 72.8144 95.5713 72.6618C95.5308 72.5093 95.5523 72.3469 95.6312 72.2102C95.7102 72.0735 95.84 71.9736 95.9924 71.9324C96.1448 71.8913 96.3073 71.9121 96.4443 71.9905L104.817 76.8243C105.102 76.9892 105.2 77.3542 105.035 77.6396ZM127.552 76.4117C127.593 76.5646 127.572 76.7275 127.493 76.8646C127.414 77.0016 127.283 77.1016 127.13 77.1426L117.792 79.6448C117.716 79.666 117.637 79.6719 117.558 79.6622C117.48 79.6525 117.405 79.6273 117.336 79.5882C117.268 79.5491 117.207 79.4968 117.159 79.4344C117.111 79.3719 117.076 79.3005 117.055 79.2244C117.035 79.1482 117.03 79.0687 117.04 78.9905C117.051 78.9123 117.077 78.837 117.117 78.7689C117.156 78.7008 117.209 78.6413 117.272 78.5937C117.335 78.5462 117.407 78.5116 117.483 78.4919L126.822 75.9897C126.974 75.9488 127.137 75.9702 127.274 76.0493C127.411 76.1285 127.511 76.2588 127.552 76.4117ZM104.38 82.6209C104.465 82.9393 104.276 83.2665 103.958 83.3518L94.6191 85.854C94.5432 85.875 94.4639 85.8808 94.3857 85.871C94.3075 85.8612 94.2321 85.836 94.1637 85.7969C94.0953 85.7578 94.0353 85.7055 93.9872 85.6431C93.9391 85.5807 93.9039 85.5094 93.8835 85.4333C93.8631 85.3572 93.858 85.2778 93.8684 85.1998C93.8789 85.1217 93.9047 85.0464 93.9443 84.9783C93.984 84.9103 94.0368 84.8507 94.0995 84.8032C94.1623 84.7556 94.2339 84.7209 94.3102 84.7011L103.649 82.1989C103.801 82.158 103.964 82.1794 104.101 82.2586C104.239 82.3377 104.339 82.468 104.38 82.6209ZM115.231 97.754C115.078 97.795 114.915 97.7735 114.778 97.6944C114.641 97.6152 114.541 97.4849 114.5 97.332L111.997 87.9936C111.956 87.8407 111.978 87.6779 112.057 87.5408C112.136 87.4037 112.267 87.3037 112.419 87.2627C112.738 87.1775 113.065 87.3664 113.15 87.6847L115.652 97.0231C115.693 97.176 115.672 97.3389 115.593 97.4759C115.514 97.613 115.383 97.713 115.231 97.754ZM109.021 74.581C108.868 74.6219 108.706 74.6005 108.568 74.5213C108.431 74.4422 108.331 74.3119 108.29 74.159L105.788 64.8207C105.767 64.7447 105.761 64.6654 105.771 64.5872C105.781 64.5091 105.806 64.4336 105.845 64.3652C105.884 64.2968 105.937 64.2369 105.999 64.1888C106.061 64.1407 106.133 64.1054 106.209 64.085C106.285 64.0646 106.364 64.0595 106.442 64.07C106.521 64.0804 106.596 64.1062 106.664 64.1459C106.732 64.1855 106.791 64.2383 106.839 64.3011C106.887 64.3639 106.921 64.4355 106.941 64.5117L109.443 73.8501C109.484 74.003 109.463 74.1659 109.384 74.3029C109.304 74.44 109.174 74.54 109.021 74.581Z" fill="#002DCB"/>
</g>
<g filter="url(#filter2_d_601_6460)">
<rect x="148.49" y="55.506" width="97" height="50.92" rx="13.01" fill="url(#paint3_linear_601_6460)" shape-rendering="crispEdges"/>
</g>
<g filter="url(#filter3_d_601_6460)">
<rect x="254.16" y="55.506" width="97" height="50.92" rx="13.01" fill="url(#paint4_linear_601_6460)" shape-rendering="crispEdges"/>
</g>
<g filter="url(#filter4_d_601_6460)">
<rect x="81.6094" y="115.106" width="269.53" height="50.92" rx="13.01" fill="url(#paint5_linear_601_6460)" shape-rendering="crispEdges"/>
</g>
<g filter="url(#filter5_d_601_6460)">
<rect x="81.6094" y="174.696" width="269.53" height="50.92" rx="13.01" fill="url(#paint6_linear_601_6460)" shape-rendering="crispEdges"/>
</g>
</g>
</g>
<path d="M208.385 155.699V163.043C208.385 163.285 208.581 163.479 208.821 163.479C208.946 163.479 209.067 163.426 209.15 163.33L210.786 161.459L211.936 163.762C212.093 164.075 212.473 164.202 212.786 164.045C213.099 163.889 213.226 163.509 213.069 163.196L211.946 160.944H214.285C214.527 160.944 214.723 160.748 214.723 160.506C214.723 160.381 214.67 160.263 214.577 160.179L209.15 155.357C209.065 155.281 208.958 155.24 208.845 155.24C208.591 155.24 208.385 155.446 208.385 155.699Z" fill="#002DCB"/>
</g>
<defs>
<filter id="filter0_d_601_6460" x="48.2695" y="33.816" width="336.22" height="241.14" filterUnits="userSpaceOnUse" color-interpolation-filters="sRGB">
<feFlood flood-opacity="0" result="BackgroundImageFix"/>
<feColorMatrix in="SourceAlpha" type="matrix" values="0 0 0 0 0 0 0 0 0 0 0 0 0 0 0 0 0 0 127 0" result="hardAlpha"/>
<feMorphology radius="16" operator="erode" in="SourceAlpha" result="effect1_dropShadow_601_6460"/>
<feOffset dy="16"/>
<feGaussianBlur stdDeviation="16"/>
<feComposite in2="hardAlpha" operator="out"/>
<feColorMatrix type="matrix" values="0 0 0 0 0.0941176 0 0 0 0 0.121569 0 0 0 0 0.176471 0 0 0 0.145 0"/>
<feBlend mode="normal" in2="BackgroundImageFix" result="effect1_dropShadow_601_6460"/>
<feBlend mode="normal" in="SourceGraphic" in2="effect1_dropShadow_601_6460" result="shape"/>
</filter>
<filter id="filter1_d_601_6460" x="65.6094" y="47.506" width="90.2002" height="82.92" filterUnits="userSpaceOnUse" color-interpolation-filters="sRGB">
<feFlood flood-opacity="0" result="BackgroundImageFix"/>
<feColorMatrix in="SourceAlpha" type="matrix" values="0 0 0 0 0 0 0 0 0 0 0 0 0 0 0 0 0 0 127 0" result="hardAlpha"/>
<feMorphology radius="8" operator="erode" in="SourceAlpha" result="effect1_dropShadow_601_6460"/>
<feOffset dy="8"/>
<feGaussianBlur stdDeviation="12"/>
<feComposite in2="hardAlpha" operator="out"/>
<feColorMatrix type="matrix" values="0 0 0 0 0.0941176 0 0 0 0 0.121569 0 0 0 0 0.176471 0 0 0 0.125 0"/>
<feBlend mode="normal" in2="BackgroundImageFix" result="effect1_dropShadow_601_6460"/>
<feBlend mode="normal" in="SourceGraphic" in2="effect1_dropShadow_601_6460" result="shape"/>
</filter>
<filter id="filter2_d_601_6460" x="132.49" y="47.506" width="129" height="82.92" filterUnits="userSpaceOnUse" color-interpolation-filters="sRGB">
<feFlood flood-opacity="0" result="BackgroundImageFix"/>
<feColorMatrix in="SourceAlpha" type="matrix" values="0 0 0 0 0 0 0 0 0 0 0 0 0 0 0 0 0 0 127 0" result="hardAlpha"/>
<feMorphology radius="8" operator="erode" in="SourceAlpha" result="effect1_dropShadow_601_6460"/>
<feOffset dy="8"/>
<feGaussianBlur stdDeviation="12"/>
<feComposite in2="hardAlpha" operator="out"/>
<feColorMatrix type="matrix" values="0 0 0 0 0.0941176 0 0 0 0 0.121569 0 0 0 0 0.176471 0 0 0 0.125 0"/>
<feBlend mode="normal" in2="BackgroundImageFix" result="effect1_dropShadow_601_6460"/>
<feBlend mode="normal" in="SourceGraphic" in2="effect1_dropShadow_601_6460" result="shape"/>
</filter>
<filter id="filter3_d_601_6460" x="238.16" y="47.506" width="129" height="82.92" filterUnits="userSpaceOnUse" color-interpolation-filters="sRGB">
<feFlood flood-opacity="0" result="BackgroundImageFix"/>
<feColorMatrix in="SourceAlpha" type="matrix" values="0 0 0 0 0 0 0 0 0 0 0 0 0 0 0 0 0 0 127 0" result="hardAlpha"/>
<feMorphology radius="8" operator="erode" in="SourceAlpha" result="effect1_dropShadow_601_6460"/>
<feOffset dy="8"/>
<feGaussianBlur stdDeviation="12"/>
<feComposite in2="hardAlpha" operator="out"/>
<feColorMatrix type="matrix" values="0 0 0 0 0.0941176 0 0 0 0 0.121569 0 0 0 0 0.176471 0 0 0 0.125 0"/>
<feBlend mode="normal" in2="BackgroundImageFix" result="effect1_dropShadow_601_6460"/>
<feBlend mode="normal" in="SourceGraphic" in2="effect1_dropShadow_601_6460" result="shape"/>
</filter>
<filter id="filter4_d_601_6460" x="65.6094" y="107.106" width="301.53" height="82.9199" filterUnits="userSpaceOnUse" color-interpolation-filters="sRGB">
<feFlood flood-opacity="0" result="BackgroundImageFix"/>
<feColorMatrix in="SourceAlpha" type="matrix" values="0 0 0 0 0 0 0 0 0 0 0 0 0 0 0 0 0 0 127 0" result="hardAlpha"/>
<feMorphology radius="8" operator="erode" in="SourceAlpha" result="effect1_dropShadow_601_6460"/>
<feOffset dy="8"/>
<feGaussianBlur stdDeviation="12"/>
<feComposite in2="hardAlpha" operator="out"/>
<feColorMatrix type="matrix" values="0 0 0 0 0.0941176 0 0 0 0 0.121569 0 0 0 0 0.176471 0 0 0 0.125 0"/>
<feBlend mode="normal" in2="BackgroundImageFix" result="effect1_dropShadow_601_6460"/>
<feBlend mode="normal" in="SourceGraphic" in2="effect1_dropShadow_601_6460" result="shape"/>
</filter>
<filter id="filter5_d_601_6460" x="65.6094" y="166.696" width="301.53" height="82.9199" filterUnits="userSpaceOnUse" color-interpolation-filters="sRGB">
<feFlood flood-opacity="0" result="BackgroundImageFix"/>
<feColorMatrix in="SourceAlpha" type="matrix" values="0 0 0 0 0 0 0 0 0 0 0 0 0 0 0 0 0 0 127 0" result="hardAlpha"/>
<feMorphology radius="8" operator="erode" in="SourceAlpha" result="effect1_dropShadow_601_6460"/>
<feOffset dy="8"/>
<feGaussianBlur stdDeviation="12"/>
<feComposite in2="hardAlpha" operator="out"/>
<feColorMatrix type="matrix" values="0 0 0 0 0.0941176 0 0 0 0 0.121569 0 0 0 0 0.176471 0 0 0 0.125 0"/>
<feBlend mode="normal" in2="BackgroundImageFix" result="effect1_dropShadow_601_6460"/>
<feBlend mode="normal" in="SourceGraphic" in2="effect1_dropShadow_601_6460" result="shape"/>
</filter>
<linearGradient id="paint0_linear_601_6460" x1="160.335" y1="0.895996" x2="160.335" y2="220.476" gradientUnits="userSpaceOnUse">
<stop offset="0.5"/>
<stop offset="1" stop-opacity="0"/>
</linearGradient>
<linearGradient id="paint1_linear_601_6460" x1="216.38" y1="33.816" x2="216.38" y2="242.956" gradientUnits="userSpaceOnUse">
<stop stop-color="white" stop-opacity="0.7"/>
<stop offset="1" stop-color="white" stop-opacity="0"/>
</linearGradient>
<linearGradient id="paint2_linear_601_6460" x1="110.709" y1="55.506" x2="110.709" y2="106.426" gradientUnits="userSpaceOnUse">
<stop stop-color="white" stop-opacity="0.7"/>
<stop offset="1" stop-color="white" stop-opacity="0"/>
</linearGradient>
<linearGradient id="paint3_linear_601_6460" x1="196.99" y1="55.506" x2="196.99" y2="106.426" gradientUnits="userSpaceOnUse">
<stop stop-color="white" stop-opacity="0.7"/>
<stop offset="1" stop-color="white" stop-opacity="0"/>
</linearGradient>
<linearGradient id="paint4_linear_601_6460" x1="302.66" y1="55.506" x2="302.66" y2="106.426" gradientUnits="userSpaceOnUse">
<stop stop-color="white" stop-opacity="0.7"/>
<stop offset="1" stop-color="white" stop-opacity="0"/>
</linearGradient>
<linearGradient id="paint5_linear_601_6460" x1="216.374" y1="115.106" x2="216.374" y2="166.026" gradientUnits="userSpaceOnUse">
<stop stop-color="white" stop-opacity="0.7"/>
<stop offset="1" stop-color="white" stop-opacity="0"/>
</linearGradient>
<linearGradient id="paint6_linear_601_6460" x1="216.374" y1="174.696" x2="216.374" y2="225.616" gradientUnits="userSpaceOnUse">
<stop stop-color="white" stop-opacity="0.7"/>
<stop offset="1" stop-color="white" stop-opacity="0"/>
</linearGradient>
<clipPath id="clip0_601_6460">
<rect x="64.2695" y="33.816" width="304.22" height="209.14" rx="15.62" fill="white"/>
</clipPath>
</defs>
</svg>
