<svg width="215" height="235" viewBox="0 0 215 235" fill="none" xmlns="http://www.w3.org/2000/svg">
<mask id="mask0_601_6282" style="mask-type:alpha" maskUnits="userSpaceOnUse" x="16" y="-9" width="199" height="210">
<rect x="16.2998" y="-8.66406" width="197.97" height="209.61" fill="url(#paint0_radial_601_6282)"/>
</mask>
<g mask="url(#mask0_601_6282)">
<path d="M138.271 77.1096L36.8638 120.899M137.848 76.7311L39.9788 46.7941M138.82 77.1305L88.1227 173.917M139.301 76.7311L169.238 174.6M144.861 78.1658L255.288 75.5817M145.111 78.6758L224.622 143.116M144.36 77.9399L227.642 7.2151M143.764 78.1308L152.697 -23.8235M143.481 78.6211L76.7165 -16.005" stroke="#D4DEF0" stroke-width="1.28095" stroke-linecap="round" stroke-linejoin="round" stroke-dasharray="4.66 3.49"/>
<path d="M248.242 90.7738C256.214 30.8932 214.135 -24.1129 154.254 -32.0857C94.3734 -40.0585 39.3673 2.02112 31.3945 61.9018L31.2376 63.0803C23.2648 122.961 65.3445 177.967 125.225 185.94C185.106 193.913 240.112 151.833 248.085 91.9523L248.242 90.7738Z" stroke="#D4DEF0" stroke-width="1.28095" stroke-linecap="round" stroke-linejoin="round" stroke-dasharray="4.66 3.49"/>
<path d="M248.483 88.9577C256.323 30.0798 214.948 -24.005 156.071 -31.8443C97.193 -39.6835 43.1084 1.69147 35.2691 60.5693L35.115 61.7271C27.2757 120.605 68.6504 174.69 127.528 182.529C186.405 190.368 240.49 148.993 248.329 90.1154L248.483 88.9577Z" stroke="#D4DEF0" stroke-width="1.28095" stroke-linecap="round" stroke-linejoin="round" stroke-dasharray="4.66 3.49"/>
</g>
<g filter="url(#filter0_d_601_6282)">
<g clip-path="url(#clip0_601_6282)">
<rect x="91.52" y="22.766" width="98.98" height="98.98" rx="49.49" fill="url(#paint1_linear_601_6282)"/>
<path d="M141.071 22.766C141.519 22.766 141.95 22.9442 142.267 23.2615C142.584 23.5787 142.762 24.009 142.762 24.4576V51.8608C142.762 52.3094 142.584 52.7397 142.267 53.0569C141.95 53.3742 141.519 53.5524 141.071 53.5524C140.622 53.5524 140.192 53.3742 139.874 53.0569C139.557 52.7397 139.379 52.3094 139.379 51.8608V24.4576C139.379 24.009 139.557 23.5787 139.874 23.2615C140.192 22.9442 140.622 22.766 141.071 22.766ZM141.071 90.7663C141.519 90.7663 141.95 90.9445 142.267 91.2618C142.584 91.579 142.762 92.0093 142.762 92.4579V119.861C142.762 120.31 142.584 120.74 142.267 121.057C141.95 121.375 141.519 121.553 141.071 121.553C140.622 121.553 140.192 121.375 139.874 121.057C139.557 120.74 139.379 120.31 139.379 119.861V92.4579C139.379 91.5238 140.136 90.7663 141.071 90.7663ZM190.464 72.1594C190.464 72.3815 190.42 72.6015 190.335 72.8067C190.25 73.012 190.126 73.1984 189.969 73.3555C189.811 73.5126 189.625 73.6372 189.42 73.7222C189.214 73.8072 188.995 73.851 188.772 73.851H161.369C160.921 73.851 160.49 73.6728 160.173 73.3555C159.856 73.0383 159.678 72.608 159.678 72.1594C159.678 71.7107 159.856 71.2804 160.173 70.9632C160.49 70.646 160.921 70.4677 161.369 70.4677H188.772C188.995 70.4677 189.214 70.5115 189.42 70.5965C189.625 70.6815 189.811 70.8061 189.969 70.9632C190.126 71.1203 190.25 71.3068 190.335 71.512C190.42 71.7172 190.464 71.9372 190.464 72.1594ZM122.464 72.1594C122.464 73.0935 121.706 73.851 120.772 73.851H93.3689C92.9202 73.851 92.49 73.6728 92.1727 73.3555C91.8555 73.0383 91.6772 72.608 91.6772 72.1594C91.6772 71.7107 91.8555 71.2804 92.1727 70.9632C92.49 70.646 92.9202 70.4677 93.3689 70.4677H120.772C121.221 70.4677 121.651 70.646 121.968 70.9632C122.285 71.2804 122.464 71.7107 122.464 72.1594ZM175.997 37.2331C176.658 37.8937 176.658 38.9648 175.997 39.6252L156.62 59.0021C156.302 59.3134 155.873 59.4866 155.428 59.4841C154.983 59.4816 154.556 59.3035 154.241 58.9886C153.926 58.6737 153.748 58.2474 153.746 57.802C153.743 57.3567 153.917 56.9283 154.228 56.6099L173.605 37.2331C173.762 37.076 173.948 36.9514 174.154 36.8664C174.359 36.7813 174.579 36.7376 174.801 36.7376C175.023 36.7376 175.243 36.7813 175.448 36.8664C175.654 36.9514 175.84 37.076 175.997 37.2331ZM127.914 85.3164C128.574 85.9771 128.574 87.0482 127.914 87.7088L108.536 107.086C108.218 107.397 107.79 107.57 107.344 107.568C106.899 107.565 106.473 107.387 106.158 107.072C105.843 106.757 105.665 106.331 105.662 105.886C105.66 105.44 105.833 105.012 106.144 104.693L125.521 85.3164C126.182 84.656 127.253 84.656 127.914 85.3164ZM175.997 107.086C175.68 107.403 175.249 107.581 174.801 107.581C174.352 107.581 173.922 107.403 173.605 107.086L154.228 87.7088C154.071 87.5517 153.946 87.3652 153.861 87.16C153.776 86.9548 153.732 86.7348 153.732 86.5126C153.732 86.2905 153.776 86.0705 153.861 85.8653C153.946 85.66 154.071 85.4735 154.228 85.3164C154.888 84.656 155.959 84.656 156.62 85.3164L175.997 104.693C176.314 105.011 176.492 105.441 176.492 105.89C176.492 106.338 176.314 106.768 175.997 107.086ZM127.914 59.0021C127.756 59.1591 127.57 59.2838 127.365 59.3688C127.159 59.4538 126.939 59.4976 126.717 59.4976C126.495 59.4976 126.275 59.4538 126.07 59.3688C125.865 59.2838 125.678 59.1591 125.521 59.0021L106.144 39.6252C105.833 39.3068 105.66 38.8784 105.662 38.4331C105.665 37.9878 105.843 37.5614 106.158 37.2465C106.473 36.9316 106.899 36.7536 107.344 36.7511C107.79 36.7485 108.218 36.9217 108.536 37.2331L127.914 56.6101C128.574 57.2708 128.574 58.3418 127.914 59.0023V59.0021ZM153.855 24.4491C154.288 24.5652 154.657 24.8487 154.882 25.2373C155.106 25.6258 155.167 26.0875 155.051 26.5208L147.958 52.9901C147.903 53.2066 147.805 53.4099 147.67 53.5883C147.535 53.7667 147.366 53.9166 147.173 54.0294C146.98 54.1421 146.767 54.2155 146.545 54.2452C146.323 54.275 146.098 54.2605 145.882 54.2027C145.666 54.1448 145.464 54.0447 145.287 53.9082C145.11 53.7716 144.962 53.6014 144.851 53.4072C144.74 53.213 144.669 52.9988 144.641 52.777C144.614 52.5551 144.63 52.33 144.69 52.1146L151.783 25.6452C151.899 25.2118 152.182 24.8424 152.571 24.6181C152.96 24.3938 153.421 24.333 153.855 24.4491ZM136.255 90.1323C136.688 90.2485 137.058 90.532 137.282 90.9205C137.506 91.309 137.567 91.7708 137.451 92.2041L130.358 118.674C130.302 118.89 130.204 119.093 130.069 119.271C129.934 119.449 129.766 119.598 129.573 119.711C129.38 119.823 129.166 119.896 128.945 119.926C128.724 119.955 128.499 119.941 128.283 119.883C128.067 119.825 127.865 119.725 127.688 119.589C127.511 119.453 127.363 119.283 127.252 119.089C127.142 118.895 127.07 118.681 127.042 118.46C127.015 118.238 127.031 118.013 127.091 117.798L134.183 91.3284C134.425 90.4261 135.352 89.8906 136.255 90.1323ZM188.781 84.9434C188.665 85.3767 188.381 85.7461 187.993 85.9704C187.604 86.1948 187.142 86.2555 186.709 86.1394L160.24 79.047C160.023 78.9913 159.82 78.8932 159.642 78.7585C159.463 78.6237 159.313 78.4549 159.201 78.2619C159.088 78.0688 159.014 77.8554 158.985 77.6338C158.955 77.4122 158.969 77.1869 159.027 76.971C159.085 76.755 159.185 76.5527 159.322 76.3756C159.458 76.1986 159.629 76.0504 159.823 75.9396C160.017 75.8287 160.231 75.7575 160.453 75.73C160.675 75.7024 160.9 75.7192 161.115 75.7792L187.585 82.8716C188.018 82.9877 188.388 83.2712 188.612 83.6598C188.836 84.0483 188.897 84.51 188.781 84.9434ZM123.098 67.3435C122.982 67.7768 122.698 68.1463 122.309 68.3706C121.921 68.5949 121.459 68.6557 121.026 68.5396L94.5564 61.4471C94.3402 61.3911 94.1373 61.2928 93.9593 61.1579C93.7813 61.0231 93.6318 60.8543 93.5194 60.6614C93.4069 60.4685 93.3338 60.2552 93.3042 60.0338C93.2746 59.8125 93.2891 59.5875 93.3469 59.3718C93.4047 59.1561 93.5047 58.9539 93.641 58.7771C93.7773 58.6002 93.9473 58.452 94.1411 58.3412C94.335 58.2303 94.5488 58.1589 94.7704 58.1311C94.992 58.1034 95.2169 58.1197 95.4321 58.1793L121.902 65.2717C122.804 65.5136 123.339 66.4411 123.098 67.3435ZM183.847 47.4626C184.314 48.2717 184.036 49.3063 183.227 49.7735L159.496 63.4749C159.107 63.697 158.647 63.7562 158.215 63.6395C157.783 63.5227 157.415 63.2397 157.191 62.8522C156.967 62.4647 156.906 62.0044 157.021 61.572C157.136 61.1396 157.417 60.7703 157.804 60.545L181.536 46.8435C181.924 46.6192 182.386 46.5584 182.819 46.6745C183.253 46.7906 183.622 47.0741 183.847 47.4626ZM124.957 81.4628C125.181 81.8514 125.242 82.3131 125.125 82.7464C125.009 83.1797 124.726 83.5492 124.337 83.7735L100.605 97.4752C100.413 97.5874 100.2 97.6605 99.9796 97.6902C99.7589 97.72 99.5344 97.7059 99.3191 97.6487C99.1039 97.5915 98.902 97.4924 98.7251 97.3569C98.5483 97.2215 98.3999 97.0525 98.2885 96.8596C98.1772 96.6667 98.105 96.4537 98.0761 96.2328C98.0473 96.012 98.0624 95.7876 98.1205 95.5725C98.1786 95.3575 98.2786 95.1561 98.4147 94.9798C98.5509 94.8035 98.7205 94.6558 98.9139 94.5453L122.646 80.8438C123.034 80.6195 123.496 80.5587 123.929 80.6748C124.363 80.7909 124.732 81.0744 124.957 81.4628ZM165.767 114.935C165.575 115.046 165.363 115.118 165.142 115.147C164.922 115.176 164.698 115.162 164.484 115.104C164.269 115.047 164.068 114.948 163.892 114.812C163.715 114.677 163.568 114.508 163.457 114.316L149.755 90.5844C149.288 89.7752 149.565 88.7406 150.374 88.2735C151.183 87.8063 152.218 88.0836 152.685 88.8927L166.386 112.624C166.611 113.013 166.672 113.475 166.555 113.908C166.439 114.341 166.156 114.711 165.767 114.935ZM131.767 56.045C131.379 56.2693 130.917 56.3301 130.484 56.214C130.05 56.0979 129.681 55.8145 129.456 55.426L115.755 31.6942C115.643 31.5018 115.57 31.2891 115.54 31.0684C115.51 30.8476 115.524 30.6232 115.581 30.4079C115.638 30.1926 115.738 29.9907 115.873 29.8139C116.008 29.637 116.177 29.4886 116.37 29.3773C116.563 29.2659 116.776 29.1937 116.997 29.1649C117.218 29.136 117.442 29.1511 117.657 29.2092C117.872 29.2673 118.074 29.3673 118.25 29.5035C118.426 29.6396 118.574 29.8093 118.685 30.0026L132.386 53.7344C132.61 54.1229 132.671 54.5846 132.555 55.0179C132.439 55.4512 132.156 55.8207 131.767 56.045ZM165.767 29.3834C166.156 29.6077 166.439 29.9772 166.555 30.4105C166.672 30.8438 166.611 31.3055 166.386 31.694L152.685 55.426C152.574 55.6194 152.427 55.789 152.25 55.9251C152.074 56.0613 151.873 56.1613 151.658 56.2194C151.443 56.2775 151.218 56.2926 150.997 56.2637C150.777 56.2349 150.564 56.1627 150.371 56.0513C150.178 55.94 150.009 55.7916 149.873 55.6147C149.738 55.4379 149.639 55.236 149.582 55.0207C149.524 54.8054 149.51 54.581 149.54 54.3602C149.57 54.1395 149.643 53.9268 149.755 53.7344L163.457 30.0026C163.924 29.1935 164.958 28.9164 165.767 29.3834ZM131.767 88.2735C132.156 88.4978 132.439 88.8673 132.555 89.3006C132.671 89.7339 132.61 90.1956 132.386 90.5841L118.685 114.316C118.574 114.509 118.426 114.679 118.25 114.815C118.074 114.951 117.872 115.051 117.657 115.11C117.442 115.168 117.218 115.183 116.997 115.154C116.776 115.125 116.563 115.053 116.37 114.941C116.177 114.83 116.008 114.682 115.873 114.505C115.738 114.328 115.638 114.126 115.581 113.911C115.524 113.696 115.51 113.471 115.54 113.25C115.57 113.03 115.643 112.817 115.755 112.624L129.456 88.8927C129.681 88.5042 130.05 88.2207 130.484 88.1046C130.917 87.9884 131.379 88.0492 131.767 88.2735ZM183.847 96.8559C183.622 97.2445 183.253 97.528 182.82 97.6441C182.386 97.7602 181.924 97.6995 181.536 97.4752L157.804 83.7735C157.421 83.5465 157.143 83.1775 157.03 82.7467C156.917 82.3159 156.979 81.858 157.201 81.4723C157.424 81.0866 157.79 80.8044 158.219 80.6867C158.649 80.569 159.107 80.6255 159.496 80.8438L183.227 94.5453C183.616 94.7696 183.899 95.139 184.016 95.5723C184.132 96.0057 184.071 96.4674 183.847 96.8559ZM124.957 62.8559C124.732 63.2444 124.363 63.5278 123.929 63.6439C123.496 63.76 123.034 63.6992 122.646 63.4749L98.9139 49.7735C98.5274 49.5481 98.2459 49.1788 98.131 48.7464C98.0161 48.314 98.0772 47.8537 98.3009 47.4662C98.5246 47.0788 98.8927 46.7957 99.3246 46.679C99.7565 46.5623 100.217 46.6214 100.605 46.8435L124.337 60.545C125.146 61.0122 125.423 62.0468 124.957 62.8559ZM188.781 59.3754C188.897 59.8087 188.836 60.2704 188.612 60.6589C188.388 61.0475 188.018 61.331 187.585 61.4471L161.115 68.5396C160.9 68.5996 160.675 68.6163 160.453 68.5887C160.231 68.5612 160.017 68.49 159.823 68.3791C159.629 68.2683 159.458 68.1201 159.322 67.9431C159.185 67.766 159.085 67.5637 159.027 67.3478C158.969 67.1318 158.955 66.9065 158.985 66.6849C159.014 66.4634 159.088 66.2499 159.201 66.0568C159.313 65.8638 159.463 65.695 159.642 65.5602C159.82 65.4255 160.023 65.3274 160.24 65.2717L186.709 58.1793C187.142 58.0632 187.604 58.124 187.993 58.3483C188.381 58.5726 188.665 58.942 188.781 59.3754ZM123.098 76.9753C123.339 77.8776 122.804 78.8051 121.902 79.047L95.4321 86.1394C95.2169 86.199 94.992 86.2154 94.7704 86.1876C94.5488 86.1598 94.335 86.0884 94.1411 85.9775C93.9473 85.8667 93.7773 85.7185 93.641 85.5417C93.5047 85.3648 93.4047 85.1626 93.3469 84.9469C93.2891 84.7312 93.2746 84.5062 93.3042 84.2849C93.3338 84.0636 93.4069 83.8503 93.5194 83.6573C93.6318 83.4644 93.7813 83.2956 93.9593 83.1608C94.1373 83.0259 94.3402 82.9276 94.5564 82.8716L121.026 75.7792C121.459 75.6631 121.921 75.7238 122.309 75.9482C122.698 76.1725 122.982 76.5419 123.098 76.9753ZM153.855 119.87C153.421 119.986 152.96 119.925 152.571 119.701C152.182 119.476 151.899 119.107 151.783 118.674L144.69 92.2041C144.574 91.7708 144.635 91.309 144.859 90.9205C145.084 90.532 145.453 90.2485 145.887 90.1323C146.789 89.8906 147.716 90.4261 147.958 91.3284L155.051 117.798C155.167 118.231 155.106 118.693 154.882 119.081C154.657 119.47 154.288 119.754 153.855 119.87ZM136.255 54.1862C135.821 54.3023 135.36 54.2415 134.971 54.0172C134.583 53.7929 134.299 53.4234 134.183 52.9901L127.091 26.5208C127.031 26.3056 127.015 26.0807 127.042 25.8592C127.07 25.6376 127.142 25.4237 127.252 25.2298C127.363 25.036 127.511 24.866 127.688 24.7297C127.865 24.5934 128.067 24.4935 128.283 24.4357C128.499 24.3779 128.724 24.3633 128.945 24.3929C129.166 24.4225 129.38 24.4957 129.573 24.6081C129.766 24.7205 129.934 24.8701 130.069 25.0481C130.204 25.2261 130.302 25.429 130.358 25.6452L137.451 52.1146C137.567 52.5479 137.506 53.0096 137.282 53.3981C137.057 53.7866 136.688 54.07 136.255 54.1862Z" fill="#002DCB"/>
</g>
</g>
<g filter="url(#filter1_d_601_6282)">
<rect x="16.2998" y="20.6759" width="47.5" height="47.5" rx="23.75" fill="url(#paint2_linear_601_6282)"/>
<g opacity="0.6">
<path d="M40.0498 33.7384V41.6353L46.7295 44.623L40.0498 33.7384ZM40.0498 33.7384L33.3701 44.623L40.0498 41.6365V33.7384ZM40.0498 49.7423V55.1122L46.7295 45.8687L40.0498 49.7423ZM40.0498 55.1122V49.7423L33.3701 45.8687L40.0498 55.1122Z" fill="#002DCB"/>
<path d="M40.0498 48.499L46.7295 44.6242L40.0498 41.6353V48.499ZM33.3701 44.6242L40.0498 48.4978V41.6364L33.3701 44.6242Z" fill="#002DCB"/>
<path fill-rule="evenodd" clip-rule="evenodd" d="M40.0498 48.4978L33.3701 44.623L40.0498 33.7384L46.7295 44.623L40.0498 48.4978ZM33.8142 44.3072L39.9429 34.3203V41.5818L33.8142 44.3072ZM33.7228 44.5803L39.9429 41.817V48.1867L33.7228 44.5803ZM40.1567 41.817V48.1867L46.3709 44.5791L40.1567 41.817ZM40.1567 41.5818L46.2842 44.3072L40.1567 34.3203V41.5818Z" fill="#002DCB"/>
<path fill-rule="evenodd" clip-rule="evenodd" d="M40.0498 49.658L33.3701 45.8628L40.0498 55.1134L46.7295 45.8628L40.0498 49.658ZM34.1182 46.5314L39.9429 49.8445V54.6004L34.1182 46.5314ZM40.1567 49.8445V54.6004L45.9814 46.5314L40.1567 49.8445Z" fill="#002DCB"/>
</g>
</g>
<g filter="url(#filter2_d_601_6282)">
<rect x="16.2998" y="94.0359" width="47.5" height="47.5" rx="23.75" fill="url(#paint3_linear_601_6282)"/>
<g opacity="0.6">
<path d="M33.9757 110.37L40.0497 107.098L46.1238 110.37L43.896 111.581L40.0497 109.515L36.2094 111.581L33.9757 110.37ZM46.1238 114.502L43.896 113.291L40.0497 115.357L36.2094 113.291L33.9769 114.502V116.919L37.8125 118.985V123.112L40.0497 124.323L42.2822 123.112V118.985L46.1226 116.919L46.1238 114.502ZM46.1238 121.052V118.629L43.896 119.84V122.257L46.1238 121.052ZM47.7127 121.907L43.8723 123.967V126.389L49.9452 123.112V116.569L47.7127 117.774V121.907ZM45.4802 112.436L47.7067 113.647V116.064L49.9452 114.859V112.436L47.7127 111.225L45.4802 112.442V112.436ZM37.8101 124.846V127.262L40.0497 128.473L42.2822 127.262V124.852L40.0497 126.057L37.8172 124.846H37.8101ZM33.9757 121.046L36.2022 122.257V119.84L33.9757 118.629V121.052V121.046ZM37.8113 112.436L40.0497 113.647L42.2822 112.436L40.0497 111.225L37.8172 112.442L37.8113 112.436ZM32.3868 113.647L34.6193 112.436L32.3927 111.225L30.1543 112.442V114.865L32.3868 116.07V113.647ZM32.3868 117.774L30.1543 116.569V123.112L36.2272 126.389V123.961L32.3915 121.901V117.768L32.3868 117.774Z" fill="#002DCB"/>
</g>
</g>
<g filter="url(#filter3_d_601_6282)">
<rect x="63.7998" y="150.626" width="47.5" height="47.5" rx="23.75" fill="url(#paint4_linear_601_6282)"/>
<g opacity="0.6">
<path d="M82.2263 183.728H78.6329C77.8789 183.728 77.5048 183.728 77.2768 183.586C77.1563 183.51 77.0558 183.406 76.9839 183.283C76.912 183.16 76.8707 183.021 76.8635 182.879C76.8493 182.611 77.0369 182.291 77.4098 181.644L86.2804 166.227C86.6616 165.573 86.8552 165.245 87.0962 165.125C87.2242 165.059 87.3661 165.025 87.5101 165.025C87.6541 165.025 87.796 165.059 87.9239 165.125C88.1638 165.245 88.3514 165.573 88.7255 166.227L90.5554 169.367L90.5625 169.379C90.863 169.824 91.1017 170.308 91.2703 170.816C91.37 171.217 91.37 171.651 91.2703 172.058C91.1014 172.571 90.8632 173.058 90.5625 173.507L85.9004 181.629L85.8862 181.657C85.6456 182.141 85.34 182.591 84.9777 182.993C84.6628 183.284 84.2861 183.501 83.8757 183.627C83.4957 183.728 83.0742 183.728 82.2263 183.728ZM91.3035 183.728H96.4466C97.2149 183.728 97.5949 183.728 97.8229 183.58C97.9436 183.504 98.0441 183.4 98.1161 183.276C98.188 183.153 98.2292 183.014 98.2362 182.871C98.2504 182.611 98.0699 182.305 97.7089 181.696L97.6685 181.629L95.0917 177.288L95.0644 177.234C94.7034 176.633 94.5169 176.326 94.283 176.206C94.1561 176.14 94.0151 176.106 93.8721 176.106C93.7291 176.106 93.5881 176.14 93.4612 176.206C93.2202 176.326 93.0337 176.647 92.6597 177.288L90.0816 181.636V181.649C89.7016 182.291 89.514 182.611 89.527 182.873C89.5344 183.016 89.5758 183.155 89.6479 183.28C89.72 183.404 89.8206 183.509 89.9415 183.586C90.1612 183.728 90.5424 183.728 91.3035 183.728Z" fill="#002DCB"/>
</g>
</g>
<g filter="url(#filter4_d_601_6282)">
<rect x="144.97" y="154.816" width="47.5" height="47.5" rx="23.75" fill="url(#paint5_linear_601_6282)"/>
<g opacity="0.6">
<path d="M163.275 174.899C163.479 174.781 163.712 174.718 163.948 174.718C164.184 174.718 164.416 174.781 164.62 174.899L167.695 176.735L169.783 177.929L172.863 179.764C173.252 180.003 173.768 180.003 174.201 179.764L176.647 178.331C177.043 178.093 177.521 177.653 177.521 177.174V174.346C177.521 173.868 177.081 173.428 176.642 173.189L174.239 171.792C174.036 171.675 173.805 171.614 173.57 171.614C173.335 171.614 173.104 171.675 172.901 171.792L170.493 173.189C170.103 173.426 169.977 173.868 169.977 174.346V176.174L168.09 174.944V173.101C168.09 172.623 167.964 172.183 168.404 171.944L172.864 169.315C173.068 169.198 173.298 169.137 173.533 169.137C173.768 169.137 173.999 169.198 174.202 169.315L178.735 171.943C178.943 172.057 179.116 172.225 179.234 172.43C179.353 172.635 179.413 172.869 179.408 173.106V178.412C179.411 178.647 179.35 178.879 179.231 179.083C179.113 179.286 178.941 179.454 178.735 179.568L174.202 182.196C173.999 182.313 173.768 182.375 173.533 182.375C173.298 182.375 173.068 182.313 172.864 182.196L169.784 180.404L167.696 179.167L164.616 177.374C164.412 177.256 164.181 177.195 163.946 177.195C163.711 177.195 163.48 177.256 163.276 177.374L160.875 178.77C160.478 179.009 159.919 179.449 159.919 179.927V182.755C159.919 183.234 160.442 183.673 160.875 183.912L163.276 185.345C163.673 185.585 164.188 185.585 164.622 185.345L167.023 183.95C167.419 183.711 168.092 183.271 168.092 182.793V180.965L169.978 182.196V184.032C169.978 184.509 169.551 184.95 169.118 185.189L164.572 187.811C164.182 188.055 163.666 188.055 163.232 187.811L158.7 185.183C158.501 185.062 158.336 184.894 158.22 184.693C158.103 184.492 158.039 184.265 158.032 184.033V178.727C158.032 178.25 158.271 177.81 158.704 177.571L163.275 174.899Z" fill="#002DCB"/>
</g>
</g>
<defs>
<filter id="filter0_d_601_6282" x="75.52" y="22.766" width="130.98" height="130.98" filterUnits="userSpaceOnUse" color-interpolation-filters="sRGB">
<feFlood flood-opacity="0" result="BackgroundImageFix"/>
<feColorMatrix in="SourceAlpha" type="matrix" values="0 0 0 0 0 0 0 0 0 0 0 0 0 0 0 0 0 0 127 0" result="hardAlpha"/>
<feMorphology radius="16" operator="erode" in="SourceAlpha" result="effect1_dropShadow_601_6282"/>
<feOffset dy="16"/>
<feGaussianBlur stdDeviation="16"/>
<feComposite in2="hardAlpha" operator="out"/>
<feColorMatrix type="matrix" values="0 0 0 0 0.0941176 0 0 0 0 0.121569 0 0 0 0 0.176471 0 0 0 0.145 0"/>
<feBlend mode="normal" in2="BackgroundImageFix" result="effect1_dropShadow_601_6282"/>
<feBlend mode="normal" in="SourceGraphic" in2="effect1_dropShadow_601_6282" result="shape"/>
</filter>
<filter id="filter1_d_601_6282" x="0.299805" y="20.6759" width="79.5" height="79.5" filterUnits="userSpaceOnUse" color-interpolation-filters="sRGB">
<feFlood flood-opacity="0" result="BackgroundImageFix"/>
<feColorMatrix in="SourceAlpha" type="matrix" values="0 0 0 0 0 0 0 0 0 0 0 0 0 0 0 0 0 0 127 0" result="hardAlpha"/>
<feMorphology radius="16" operator="erode" in="SourceAlpha" result="effect1_dropShadow_601_6282"/>
<feOffset dy="16"/>
<feGaussianBlur stdDeviation="16"/>
<feComposite in2="hardAlpha" operator="out"/>
<feColorMatrix type="matrix" values="0 0 0 0 0.0941176 0 0 0 0 0.121569 0 0 0 0 0.176471 0 0 0 0.145 0"/>
<feBlend mode="normal" in2="BackgroundImageFix" result="effect1_dropShadow_601_6282"/>
<feBlend mode="normal" in="SourceGraphic" in2="effect1_dropShadow_601_6282" result="shape"/>
</filter>
<filter id="filter2_d_601_6282" x="0.299805" y="94.0359" width="79.5" height="79.5" filterUnits="userSpaceOnUse" color-interpolation-filters="sRGB">
<feFlood flood-opacity="0" result="BackgroundImageFix"/>
<feColorMatrix in="SourceAlpha" type="matrix" values="0 0 0 0 0 0 0 0 0 0 0 0 0 0 0 0 0 0 127 0" result="hardAlpha"/>
<feMorphology radius="16" operator="erode" in="SourceAlpha" result="effect1_dropShadow_601_6282"/>
<feOffset dy="16"/>
<feGaussianBlur stdDeviation="16"/>
<feComposite in2="hardAlpha" operator="out"/>
<feColorMatrix type="matrix" values="0 0 0 0 0.0941176 0 0 0 0 0.121569 0 0 0 0 0.176471 0 0 0 0.145 0"/>
<feBlend mode="normal" in2="BackgroundImageFix" result="effect1_dropShadow_601_6282"/>
<feBlend mode="normal" in="SourceGraphic" in2="effect1_dropShadow_601_6282" result="shape"/>
</filter>
<filter id="filter3_d_601_6282" x="47.7998" y="150.626" width="79.5" height="79.5" filterUnits="userSpaceOnUse" color-interpolation-filters="sRGB">
<feFlood flood-opacity="0" result="BackgroundImageFix"/>
<feColorMatrix in="SourceAlpha" type="matrix" values="0 0 0 0 0 0 0 0 0 0 0 0 0 0 0 0 0 0 127 0" result="hardAlpha"/>
<feMorphology radius="16" operator="erode" in="SourceAlpha" result="effect1_dropShadow_601_6282"/>
<feOffset dy="16"/>
<feGaussianBlur stdDeviation="16"/>
<feComposite in2="hardAlpha" operator="out"/>
<feColorMatrix type="matrix" values="0 0 0 0 0.0941176 0 0 0 0 0.121569 0 0 0 0 0.176471 0 0 0 0.145 0"/>
<feBlend mode="normal" in2="BackgroundImageFix" result="effect1_dropShadow_601_6282"/>
<feBlend mode="normal" in="SourceGraphic" in2="effect1_dropShadow_601_6282" result="shape"/>
</filter>
<filter id="filter4_d_601_6282" x="128.97" y="154.816" width="79.5" height="79.5" filterUnits="userSpaceOnUse" color-interpolation-filters="sRGB">
<feFlood flood-opacity="0" result="BackgroundImageFix"/>
<feColorMatrix in="SourceAlpha" type="matrix" values="0 0 0 0 0 0 0 0 0 0 0 0 0 0 0 0 0 0 127 0" result="hardAlpha"/>
<feMorphology radius="16" operator="erode" in="SourceAlpha" result="effect1_dropShadow_601_6282"/>
<feOffset dy="16"/>
<feGaussianBlur stdDeviation="16"/>
<feComposite in2="hardAlpha" operator="out"/>
<feColorMatrix type="matrix" values="0 0 0 0 0.0941176 0 0 0 0 0.121569 0 0 0 0 0.176471 0 0 0 0.145 0"/>
<feBlend mode="normal" in2="BackgroundImageFix" result="effect1_dropShadow_601_6282"/>
<feBlend mode="normal" in="SourceGraphic" in2="effect1_dropShadow_601_6282" result="shape"/>
</filter>
<radialGradient id="paint0_radial_601_6282" cx="0" cy="0" r="1" gradientUnits="userSpaceOnUse" gradientTransform="translate(115.285 96.1409) scale(144.16 144.16)">
<stop offset="0.5"/>
<stop offset="1" stop-opacity="0"/>
</radialGradient>
<linearGradient id="paint1_linear_601_6282" x1="141.01" y1="22.766" x2="141.01" y2="121.746" gradientUnits="userSpaceOnUse">
<stop stop-color="#FAFBFF"/>
<stop offset="1" stop-color="white"/>
</linearGradient>
<linearGradient id="paint2_linear_601_6282" x1="40.0498" y1="20.6759" x2="40.0498" y2="68.1759" gradientUnits="userSpaceOnUse">
<stop stop-color="#FAFBFF"/>
<stop offset="1" stop-color="white"/>
</linearGradient>
<linearGradient id="paint3_linear_601_6282" x1="40.0498" y1="94.0359" x2="40.0498" y2="141.536" gradientUnits="userSpaceOnUse">
<stop stop-color="#FAFBFF"/>
<stop offset="1" stop-color="white"/>
</linearGradient>
<linearGradient id="paint4_linear_601_6282" x1="87.5498" y1="150.626" x2="87.5498" y2="198.126" gradientUnits="userSpaceOnUse">
<stop stop-color="#FAFBFF"/>
<stop offset="1" stop-color="white"/>
</linearGradient>
<linearGradient id="paint5_linear_601_6282" x1="168.72" y1="154.816" x2="168.72" y2="202.316" gradientUnits="userSpaceOnUse">
<stop stop-color="#FAFBFF"/>
<stop offset="1" stop-color="white"/>
</linearGradient>
<clipPath id="clip0_601_6282">
<rect x="91.52" y="22.766" width="98.98" height="98.98" rx="49.49" fill="white"/>
</clipPath>
</defs>
</svg>
