<svg width="23" height="23" viewBox="0 0 23 23" fill="none" xmlns="http://www.w3.org/2000/svg">
<path d="M10.948 4.9939C11.0731 4.48701 11.7936 4.48701 11.9187 4.9939L12.9812 9.29663C13.1147 9.83754 13.537 10.2598 14.0779 10.3933L18.3806 11.4558C18.8875 11.5809 18.8875 12.3014 18.3806 12.4265L14.0779 13.489C13.537 13.6225 13.1147 14.0448 12.9812 14.5857L11.9187 18.8884C11.7936 19.3953 11.0731 19.3953 10.948 18.8884L9.8855 14.5857C9.75197 14.0448 9.32973 13.6225 8.78882 13.489L4.48608 12.4265C3.9792 12.3014 3.9792 11.5809 4.48608 11.4558L8.78882 10.3933C9.32973 10.2598 9.75197 9.83754 9.8855 9.29663L10.948 4.9939Z" fill="#002DCB" stroke="#002DCB"/>
<line x1="14.9333" y1="6.44116" x2="18.9333" y2="6.44116" stroke="#002DCB" stroke-linecap="round"/>
<line x1="16.9333" y1="4.44116" x2="16.9333" y2="8.44116" stroke="#002DCB" stroke-linecap="round"/>
<circle cx="6.34639" cy="16.8542" r="1.41304" stroke="#002DCB"/>
</svg>
